<?xml version="1.0"?>
<svg xmlns:rdf="http://www.w3.org/1999/02/22-rdf-syntax-ns#" xmlns="http://www.w3.org/2000/svg" xmlns:cc="http://creativecommons.org/ns#" xmlns:dc="http://purl.org/dc/elements/1.1/" xmlns:svg="http://www.w3.org/2000/svg" id="svg2" style="shape-rendering:geometricPrecision;text-rendering:geometricPrecision;image-rendering:optimizeQuality" fill-rule="evenodd" xml:space="preserve" viewBox="0 0 138.119 111.978" version="1.1" clip-rule="evenodd">
 <defs id="defs4">
  <style id="style6" type="text/css">
    .str1 {stroke:#1F1A17;stroke-width:0.988563}
    .str0 {stroke:#1F1A17;stroke-width:0.988563;stroke-linecap:round;stroke-linejoin:round}
    .fil0 {fill:none}
    .fil1 {fill:white}
  </style>
 </defs>
 <path id="path20" d="m107.28 42.645c6.6179-1.1861 8.4653-5.899 11.846-9.564 5.481-0.92085 9.8238-0.55607 13.902-2.3355 4.1008-0.64434 3.3688 0.92124 4.1149 2.5579 2.9286 28.916-7.5996 40.815-20.908 46.71-4.3135 3.4847-6.625 7.9704-8.603 13.123l-0.35193-50.491z" stroke="#1f1a17" stroke-width=".98856" class="fil0 str1" fill="#1a1a1a"/><path id="path12" d="m0.54885 28.484c11.937 4.2261 13.106 14.273 14.589 20.501-3.3364 28.916 10.454 36.923 18.684 46.042 8.8698-3.7689 7.9123-28.821 0.44485-34.254-2.9286-0.29657-6.5245-2.1501-9.1195-8.8971l-4.8934-16.904c-2.6567-3.7677-4.1886-8.841-10.898-11.844-3.2623 0.22243-8.3243 2.1304-8.8062 5.3556z" stroke="#1f1a17" stroke-width=".98856" class="fil0 str1" fill="#b3b3b3"/><path id="path10" stroke-linejoin="round" d="m0.92421 28.739c11.954 4.1782 12.731 14.018 14.214 20.246-3.3364 28.916 10.454 36.923 18.684 46.042l0.22243 5.5607c1.2604 2.7062 2.3321 2.3739 3.7812 3.114 7.2457 4.8261 56.52 4.6098 66.505 0 2.4455-0.79777 3.391-2.7067 3.3364-4.8934l-0.44485-63.836c-7.1918 1.6311-12.938 5.2641-21.575 4.8934-9.3061 1.453-17.75 2.2966-28.693 0-7.5625-0.59314-14.791-1.4087-22.688-5.7831v26.691c-2.9286-0.29657-6.5245-2.1501-9.1195-8.8971l-4.8934-16.904c-2.6567-3.7677-3.7442-8.341-10.454-11.344-0.87152 5.9468-11.473 4.2029-8.8753 5.1109z" stroke="#1f1a17" stroke-linecap="round" stroke-width=".98856" class="fil0 str0" fill="#666"/><path id="path14" stroke-linejoin="round" d="m34.266 34.082c6.5987-1.2604 9.8609-4.5227 9.1195-10.788 18.61 7.3401 41.557 4.1149 55.162 0-0.33364 8.0074 5.1158 8.0074 8.6746 11.677-6.6603 2.004-12.938 5.0417-21.575 4.8934-8.7944 1.1261-18.461 2.5579-28.693 0-8.1073-0.88634-15.681-1.9648-22.688-5.7831z" stroke="#1f1a17" stroke-linecap="round" stroke-width=".98856" class="fil0 str0" fill="#4d4d4d"/><path id="path16" d="m43.386 23.294c-1.4828-0.03707-1.5478-1.353-1.4458-2.113 6.1167-7.8961 13.234-11.121 21.019-12.678 5.8754-1.1853 11.362-0.87053 16.46-0.22243 11.492 2.2243 16.422 7.6737 20.13 12.678 0.3886 0.88961 0.05496 2.0014-1.0009 2.3355-15.679 4.1303-35.588 7.777-55.162 0z" stroke="#1f1a17" stroke-width=".98856" class="fil0 str1" fill="#999"/><path id="path18" d="m62.96 8.5028c6.4874 1.8165 11.529 1.7423 16.46-0.22243-1.4458-4.0408-1.6682-6.9694-8.0074-7.7849-4.708 0.44485-7.9703 2.5579-8.4522 8.0074z" stroke="#1f1a17" stroke-width=".98856" class="fil1 str1" fill="#e6e6e6"/><path id="path22" d="m107.36 54.545c1.4744-0.96375 3.6162-3.4845 3.0889-6.2278 5.0787-2.2243 7.822-5.7831 9.898-10.009 3.9295-1.2604 7.6141-1.1177 12.122-1.7794-0.53284 19.129-3.0675 37.479-24.953 40.371l-0.1558-22.354z" stroke="#1f1a17" stroke-width=".98856" class="fil0 str1" fill="#fff"/><line id="line24" y2="99.92" x1="56.954" class="fil0 str1" y1="39.865" stroke="#1f1a17" x2="54.73" stroke-width=".98856" fill="none"/><line id="line26" y2="99.475" x1="85.647" class="fil0 str1" y1="39.865" stroke="#1f1a17" x2="86.759" stroke-width=".98856" fill="none"/><path id="path28" d="m37.825 103.7c-0.6482 0.85264-0.62971 1.7053-0.11121 2.5579 21.909 8.8229 50.824 4.6339 65.06 0.77849 0.79678-0.66767 1.8714-2.1132 1.557-3.3364-13.383 4.4485-59.472 4.932-66.506 0z" stroke="#1f1a17" stroke-width=".98856" class="fil0 str1" fill="#333"/>
<metadata><rdf:RDF><cc:Work><dc:format>image/svg+xml</dc:format><dc:type rdf:resource="http://purl.org/dc/dcmitype/StillImage"/><cc:license rdf:resource="http://creativecommons.org/licenses/publicdomain/"/><dc:publisher><cc:Agent rdf:about="http://openclipart.org/"><dc:title>Openclipart</dc:title></cc:Agent></dc:publisher><dc:title>Coffee-pot</dc:title><dc:date>2011-02-14T18:54:37</dc:date><dc:description>Old coffee-pot</dc:description><dc:source>http://openclipart.org/detail/118321/coffee-pot-by-iyo</dc:source><dc:creator><cc:Agent><dc:title>Iyo</dc:title></cc:Agent></dc:creator><dc:subject><rdf:Bag><rdf:li>beverage</rdf:li><rdf:li>clip art</rdf:li><rdf:li>clipart</rdf:li><rdf:li>coffee</rdf:li><rdf:li>coffee-pot</rdf:li><rdf:li>container</rdf:li><rdf:li>drink</rdf:li><rdf:li>kitchen</rdf:li><rdf:li>old</rdf:li><rdf:li>pot</rdf:li></rdf:Bag></dc:subject></cc:Work><cc:License rdf:about="http://creativecommons.org/licenses/publicdomain/"><cc:permits rdf:resource="http://creativecommons.org/ns#Reproduction"/><cc:permits rdf:resource="http://creativecommons.org/ns#Distribution"/><cc:permits rdf:resource="http://creativecommons.org/ns#DerivativeWorks"/></cc:License></rdf:RDF></metadata></svg>
